<?xml version="1.0" standalone="no"?>
<!DOCTYPE svg PUBLIC "-//W3C//DTD SVG 20010904//EN"
 "http://www.w3.org/TR/2001/REC-SVG-20010904/DTD/svg10.dtd">
<svg version="1.0" xmlns="http://www.w3.org/2000/svg"
 width="225.000000pt" height="225.000000pt" viewBox="0 0 225.000000 225.000000"
 preserveAspectRatio="xMidYMid meet">
<metadata>
Created by potrace 1.16, written by Peter Selinger 2001-2019
</metadata>
<g transform="translate(0.000000,225.000000) scale(0.100000,-0.100000)"
fill="#000000" stroke="none">
<path d="M760 1514 c-30 -2 -68 -6 -85 -9 l-30 -5 7 -252 c4 -139 10 -272 13
-296 3 -23 24 -78 46 -121 47 -95 128 -175 220 -219 l62 -30 -34 -7 c-32 -6
-210 -58 -244 -71 -10 -4 -7 8 12 41 33 60 34 117 4 171 -34 60 -81 88 -160
92 -67 4 -151 -11 -151 -28 0 -5 7 -41 15 -80 l15 -71 -25 -22 c-49 -44 -56
-218 -13 -320 55 -128 173 -156 368 -88 176 62 505 63 704 1 116 -35 183 -38
246 -9 58 26 77 44 106 101 21 42 24 61 24 168 0 117 -1 122 -27 147 l-26 27
15 77 14 77 -37 11 c-60 18 -154 14 -199 -9 -53 -27 -91 -80 -97 -134 -5 -39
7 -79 44 -148 2 -3 -45 9 -104 27 -59 19 -121 37 -136 40 -27 6 -26 7 35 37
127 64 228 197 263 348 8 36 23 172 33 302 17 236 17 237 -3 243 -22 7 -787
15 -875 9z m217 -44 c68 0 113 -4 111 -9 -1 -6 -90 -121 -197 -257 -159 -201
-196 -243 -202 -228 -4 10 -8 129 -8 263 l-1 244 92 -7 c50 -3 143 -6 205 -6z
m648 -37 c-3 -27 -12 -138 -21 -248 -9 -110 -19 -205 -22 -211 -4 -7 -91 92
-207 234 -110 135 -201 249 -203 254 -2 4 70 9 160 11 90 1 194 4 231 5 l68 2
-6 -47z m-289 -218 c109 -134 200 -248 202 -253 1 -5 -167 -10 -404 -11 -223
-1 -405 2 -403 6 7 16 394 503 400 503 3 0 96 -110 205 -245z m-545 -327 c19
-6 46 -25 61 -41 16 -17 32 -25 39 -21 7 4 9 3 5 -4 -8 -13 10 -25 42 -30 15
-2 22 2 22 14 0 12 6 15 21 11 16 -4 24 2 36 29 9 19 21 35 27 35 6 1 33 2 60
3 45 1 51 -2 70 -31 17 -26 25 -31 48 -26 15 3 39 2 54 -1 25 -7 26 -8 9 -26
-22 -24 -55 -29 -35 -5 11 13 8 15 -18 15 -25 0 -30 -5 -36 -31 -4 -19 0 -38
10 -54 15 -23 14 -24 -13 -27 -20 -2 -28 -9 -29 -23 -1 -11 -3 -24 -4 -30 -1
-5 -2 -13 -1 -17 2 -15 -23 -7 -48 15 l-25 22 17 -27 c28 -44 23 -51 -30 -43
-66 10 -144 40 -194 77 -40 29 -41 32 -24 44 17 13 17 14 -11 14 -42 0 -106
75 -129 148 -5 19 -3 22 18 22 13 0 39 -5 58 -12z m203 -475 c3 -16 8 -44 12
-64 l6 -37 -81 -1 -81 -1 0 60 0 60 35 0 c34 0 35 -1 35 -37 0 -28 3 -34 10
-23 5 8 10 27 10 43 0 22 5 27 24 27 19 0 26 -7 30 -27z m592 -36 c1 -52 11
-56 19 -7 6 37 9 41 33 38 24 -3 28 -8 33 -53 4 -34 6 -40 7 -18 3 44 11 63
29 63 13 0 15 -9 10 -49 -4 -33 -2 -51 5 -53 6 -2 8 -9 5 -15 -7 -11 -90 -6
-95 6 -1 4 -27 5 -56 3 -31 -2 -57 1 -61 8 -3 6 -3 35 1 66 6 54 7 55 38 52
28 -3 31 -6 32 -41z"/>
<path d="M790 1438 c0 -15 -18 -60 -39 -101 -45 -86 -57 -162 -29 -181 15 -9
27 -1 77 48 52 51 61 57 67 41 7 -17 8 -17 21 1 16 21 17 60 3 69 -6 4 -29 -9
-50 -29 -22 -20 -45 -36 -50 -36 -15 0 -12 35 5 77 17 40 19 101 5 123 -8 12
-10 9 -10 -12z"/>
<path d="M1091 1339 c0 -13 3 -42 8 -64 6 -33 3 -46 -17 -77 -13 -20 -22 -45
-20 -54 3 -16 7 -14 31 11 27 29 28 29 42 11 8 -11 24 -45 35 -75 35 -97 37
-99 45 -78 5 12 -1 48 -15 93 -13 41 -21 76 -18 79 3 3 23 -21 45 -52 40 -56
83 -103 83 -89 0 14 -60 138 -80 167 -21 28 -22 47 -4 92 5 13 1 14 -30 5 -34
-11 -38 -10 -71 22 -34 33 -35 34 -34 9z"/>
</g>
</svg>
