<?xml version="1.0" standalone="no"?>
<!DOCTYPE svg PUBLIC "-//W3C//DTD SVG 20010904//EN"
 "http://www.w3.org/TR/2001/REC-SVG-20010904/DTD/svg10.dtd">
<svg version="1.0" xmlns="http://www.w3.org/2000/svg"
 width="1969.000000pt" height="1757.000000pt" viewBox="0 0 1969.000000 1757.000000"
 preserveAspectRatio="xMidYMid meet">

<g transform="translate(0.000000,1757.000000) scale(0.100000,-0.100000)"
fill="#000000" stroke="none">
<path d="M10611 16144 c-128 -34 -261 -144 -319 -264 -67 -136 -62 355 -62
-5755 l0 -5550 -326 -3 -326 -2 6 -128 c4 -70 9 -171 12 -224 l6 -98 314 0
314 0 0 -937 c0 -516 1 -1230 3 -1588 2 -633 3 -651 24 -705 37 -100 65 -144
132 -211 71 -71 150 -117 241 -140 82 -21 7817 -21 7900 0 94 23 184 77 254
151 71 76 111 150 132 248 21 101 21 14713 -1 14815 -39 187 -189 344 -372
392 -85 22 -7849 21 -7932 -1z m3904 -228 c107 -45 69 -206 -48 -206 -117 1
-150 159 -43 206 40 17 49 17 91 0z m265 -46 c24 -24 26 -77 3 -102 -16 -18
-68 -24 -89 -10 -15 10 -34 47 -34 67 0 25 46 65 75 65 14 0 34 -9 45 -20z
m-1503 -990 c28 -25 42 -30 83 -30 l50 0 0 -87 c0 -49 -9 -200 -20 -338 -22
-279 -28 -788 -9 -873 12 -60 9 -59 204 -68 91 -4 240 0 425 11 248 15 312 15
495 4 166 -10 256 -10 425 0 118 6 260 14 315 17 55 3 107 8 115 11 8 3 296 9
640 14 344 5 649 11 678 15 l53 7 -3 -54 -3 -54 -125 -2 c-257 -5 -849 -29
-1385 -58 -55 -3 -481 -14 -946 -24 -465 -10 -850 -21 -856 -24 -6 -4 -12 -92
-16 -219 -6 -219 -24 -334 -53 -351 -8 -4 -14 -19 -14 -32 0 -25 0 -25 -102
-25 -170 0 -441 -25 -446 -41 -5 -12 -39 -12 -46 0 -3 4 -20 12 -38 16 l-33 7
35 9 c19 4 106 9 192 9 95 1 158 6 160 12 2 5 59 12 128 16 75 3 115 8 100 13
-27 7 -29 7 -230 -16 -95 -11 -204 -15 -369 -13 -210 3 -235 5 -245 20 -8 13
-8 23 2 38 7 12 12 55 12 107 1 49 5 133 10 188 22 238 30 415 40 804 8 352
13 431 31 525 27 143 27 145 39 126 15 -24 11 -142 -6 -201 -14 -47 -17 -126
-19 -584 -1 -479 -4 -550 -25 -737 -12 -114 -20 -214 -17 -222 8 -21 75 -21
125 0 69 29 176 46 332 53 l155 8 -117 1 c-120 2 -229 -9 -317 -32 l-50 -13
-11 49 c-5 27 -10 60 -10 73 0 14 -4 25 -9 25 -5 0 -8 168 -8 380 0 209 3 376
6 371 4 -5 7 18 7 52 1 34 6 255 13 491 6 236 11 437 11 447 0 12 5 16 14 13
8 -3 30 8 49 25 l35 31 261 0 262 0 -7 -70 c-8 -82 -9 -272 -4 -529 3 -146 6
-180 15 -167 7 9 15 69 19 134 4 64 13 185 21 267 24 260 29 361 16 369 -7 4
-143 7 -304 6 l-292 -1 -25 -24 c-17 -16 -38 -25 -58 -25 -32 0 -32 0 -26 43
4 24 15 49 26 58 22 17 225 38 428 43 63 2 14 2 -110 0 -124 -2 -237 -6 -252
-10 -18 -4 -28 -2 -28 5 0 6 10 11 23 12 21 1 21 1 -3 9 -14 4 40 7 120 6 80
-1 134 1 120 5 -14 4 51 7 144 8 l168 1 35 -30z m1044 10 c83 -15 191 -74 249
-136 53 -56 107 -156 117 -218 l6 -37 -143 3 c-131 3 -144 5 -154 23 -31 56
-61 86 -111 110 -49 25 -64 27 -133 23 -61 -4 -86 -10 -117 -30 -110 -71 -165
-191 -165 -364 0 -147 48 -263 137 -330 98 -75 257 -66 349 18 43 40 82 117
69 138 -4 7 -47 11 -123 10 -65 -1 -121 -1 -127 -1 -6 1 -9 43 -8 108 l2 108
258 5 258 5 8 45 c26 148 63 237 135 326 123 152 330 225 555 195 91 -12 213
-56 238 -87 19 -23 28 -16 31 24 l3 37 498 3 497 2 0 -120 0 -120 -172 -2
-173 -3 -3 -477 -2 -478 -150 0 -150 0 -2 478 -3 477 -112 3 c-62 1 -113 1
-113 0 0 -2 7 -25 15 -52 8 -27 15 -62 15 -78 l0 -28 -139 0 -139 0 -11 32
c-33 93 -107 141 -221 142 -105 0 -166 -32 -219 -114 -50 -77 -65 -141 -65
-270 1 -225 85 -353 242 -367 124 -11 222 44 259 147 l18 50 137 0 c157 0 150
5 122 -91 -52 -173 -180 -300 -349 -344 -70 -18 -231 -20 -307 -4 -172 37
-332 176 -393 342 -10 26 -20 45 -23 43 -2 -3 -5 -85 -6 -183 l-1 -178 -95 0
-95 0 -10 68 c-5 37 -14 66 -20 65 -5 -2 -24 -19 -41 -38 -101 -111 -289 -156
-474 -114 -169 38 -314 180 -377 368 -25 74 -27 94 -27 236 0 142 2 162 27
236 64 193 221 344 403 388 70 17 249 20 325 6z m90 -1660 c10 -6 19 -17 19
-25 0 -17 -26 -20 -35 -5 -12 20 -55 11 -66 -14 -22 -48 8 -95 52 -81 25 8 24
21 -2 28 -31 8 -13 27 27 27 33 0 34 -1 34 -38 0 -44 -8 -56 -26 -41 -8 7 -14
7 -19 -1 -3 -5 -21 -10 -40 -10 -24 0 -39 7 -54 26 -45 57 -12 144 55 144 20
0 44 -5 55 -10z m189 -4 c0 -10 -14 -16 -42 -18 -57 -4 -60 -32 -5 -36 20 -2
37 -7 37 -12 0 -5 -17 -10 -37 -12 -30 -2 -38 -7 -38 -23 0 -16 8 -21 43 -23
29 -2 42 -8 42 -18 0 -12 -12 -14 -62 -12 l-63 3 -3 69 c-2 38 -1 75 2 83 8
19 126 18 126 -1z m164 -8 c14 -19 14 -25 2 -43 -9 -14 -11 -27 -5 -36 5 -8 9
-27 9 -42 0 -38 -34 -34 -38 5 -3 27 -32 45 -52 33 -5 -3 -10 -20 -10 -36 0
-24 -4 -30 -17 -27 -15 3 -19 16 -21 72 -2 38 -1 75 2 83 4 9 23 13 60 13 45
0 58 -4 70 -22z m166 7 c0 -11 -11 -15 -41 -15 -33 0 -40 -3 -37 -17 2 -13 13
-18 35 -18 17 0 34 -3 38 -7 14 -14 -7 -28 -41 -28 -27 0 -34 -4 -34 -20 0
-17 7 -20 46 -20 72 0 51 -24 -24 -28 l-62 -3 0 86 0 85 60 0 c47 0 60 -3 60
-15z m109 -37 l30 -52 3 50 c2 37 7 50 21 52 15 3 17 -6 17 -82 0 -80 -1 -86
-20 -86 -14 0 -30 15 -48 45 -15 25 -30 45 -33 45 -3 0 -5 -19 -5 -42 1 -33
-3 -43 -16 -46 -16 -3 -18 6 -18 82 0 79 2 86 20 86 13 0 29 -17 49 -52z m236
38 c11 -8 16 -19 12 -30 -6 -16 -9 -16 -36 0 -16 9 -35 14 -44 11 -23 -9 -30
-56 -12 -83 18 -27 37 -31 55 -9 15 18 40 20 40 3 0 -24 -34 -48 -67 -48 -23
0 -42 8 -60 26 -22 22 -25 32 -20 67 4 26 14 49 27 59 26 21 79 23 105 4z m90
-71 c0 -68 -3 -80 -17 -83 -16 -3 -18 6 -18 83 0 77 2 86 18 83 14 -3 17 -15
17 -83z m157 5 c15 -41 28 -78 28 -82 0 -15 -38 -8 -44 7 -3 9 -18 15 -35 15
-16 0 -31 -6 -35 -15 -5 -13 -46 -22 -46 -10 0 2 10 30 21 62 12 32 26 68 30
81 7 17 15 22 31 20 18 -2 28 -19 50 -78z m124 27 c7 -27 15 -51 18 -54 6 -6
7 -4 25 65 11 39 15 43 39 40 27 -3 27 -4 27 -83 0 -64 -3 -80 -15 -80 -11 0
-17 15 -21 50 -3 28 -7 48 -8 45 -2 -3 -8 -25 -14 -50 -9 -34 -17 -45 -32 -45
-14 0 -22 11 -30 42 -15 61 -25 63 -25 5 0 -38 -4 -52 -14 -52 -11 0 -15 19
-18 81 -2 44 -1 83 2 85 2 3 15 4 29 2 21 -2 27 -11 37 -51z m274 39 c0 -10
-14 -16 -42 -18 -57 -4 -60 -32 -5 -36 46 -4 45 -25 -2 -32 -17 -3 -32 -8 -31
-12 0 -5 0 -12 0 -18 0 -5 18 -10 40 -10 29 0 40 -4 40 -15 0 -13 -11 -15 -62
-13 l-63 3 -3 69 c-2 38 -1 75 2 83 8 19 126 18 126 -1z m100 -25 c29 -58 40
-59 40 -6 0 39 3 46 18 43 14 -3 17 -15 17 -83 0 -75 -1 -80 -22 -83 -18 -3
-28 7 -50 50 l-28 53 -5 -50 c-4 -36 -9 -50 -20 -50 -12 0 -16 16 -18 69 -4
82 1 96 27 96 14 0 27 -13 41 -39z m238 22 c2 -8 -6 -13 -22 -13 -24 0 -25 -3
-28 -67 -2 -53 -6 -68 -18 -68 -12 0 -16 15 -18 68 -3 64 -4 67 -27 67 -16 0
-25 6 -25 15 0 13 12 15 67 13 42 -2 68 -8 71 -15z m159 -5 c17 -15 23 -33 23
-62 0 -54 -30 -86 -82 -86 -53 0 -78 27 -78 85 0 32 6 51 20 65 28 28 87 27
117 -2z m250 5 c3 -8 -11 -13 -39 -15 -57 -4 -61 -32 -5 -36 49 -4 44 -26 -7
-30 -29 -3 -36 -7 -34 -20 2 -12 15 -18 46 -20 29 -2 42 -8 42 -18 0 -12 -12
-14 -62 -12 l-63 3 -3 69 c-2 38 -1 75 2 83 7 18 117 14 123 -4z m-767 -218
c16 -20 5 -32 -14 -16 -10 8 -16 9 -21 1 -12 -19 -26 -11 -15 10 13 24 33 26
50 5z m-2127 -63 c33 -30 8 -45 -33 -20 -37 24 -69 -14 -56 -67 8 -30 34 -40
56 -20 17 15 50 21 50 8 0 -4 -10 -17 -22 -30 -46 -49 -128 -13 -128 57 0 54
8 70 44 86 34 14 61 10 89 -14z m185 -4 c31 -30 30 -91 -3 -123 -34 -35 -78
-33 -116 4 -82 83 33 198 119 119z m695 4 c12 -10 17 -30 17 -63 0 -39 -4 -51
-26 -68 -74 -59 -163 21 -128 114 16 41 98 51 137 17z m1611 7 c21 -17 25 -24
14 -30 -7 -5 -22 -2 -36 7 -22 14 -42 12 -42 -6 0 -4 20 -18 45 -30 34 -17 45
-27 45 -45 0 -29 -34 -55 -72 -55 -30 0 -73 34 -63 50 9 15 32 12 39 -5 7 -18
56 -20 56 -2 0 7 -19 21 -42 32 -37 17 -43 25 -43 50 0 21 7 33 25 42 34 17
43 16 74 -8z m424 -15 c26 -29 28 -63 7 -103 -16 -32 -33 -41 -76 -41 -40 0
-79 40 -79 79 0 91 89 130 148 65z m-2606 -19 c12 -25 26 -45 30 -45 4 0 8 21
8 46 0 36 3 45 16 42 13 -2 16 -17 16 -78 0 -72 -1 -75 -23 -75 -18 0 -30 12
-49 45 l-25 45 -3 -47 c-3 -40 -6 -48 -23 -48 -17 0 -19 7 -19 73 0 41 3 77 7
80 19 19 45 4 65 -38z m231 30 c-1 -5 -11 -11 -23 -13 -18 -3 -20 -11 -20 -68
0 -57 -2 -64 -20 -64 -18 0 -20 7 -20 65 0 63 -1 65 -25 65 -16 0 -25 6 -25
15 0 13 12 15 68 13 38 -2 66 -7 65 -13z m155 3 c7 -7 12 -21 12 -33 0 -12 -5
-26 -12 -33 -9 -9 -9 -15 0 -24 20 -20 15 -58 -8 -58 -13 0 -20 7 -20 18 0 10
-5 23 -12 30 -7 7 -20 12 -30 12 -13 0 -18 -8 -18 -30 0 -23 -4 -30 -20 -30
-18 0 -20 7 -20 80 l0 80 58 0 c32 0 63 -5 70 -12z m280 -55 l3 -62 36 -3 c20
-2 38 -9 41 -15 3 -10 -13 -13 -57 -13 l-61 0 0 81 c0 71 2 80 18 77 14 -3 18
-16 20 -65z m227 52 c0 -5 -19 -11 -42 -13 -29 -2 -43 -8 -43 -18 0 -10 12
-14 40 -14 54 0 56 -27 3 -32 -26 -2 -39 -8 -41 -20 -3 -13 6 -17 39 -20 23
-2 44 -9 47 -15 3 -10 -14 -13 -62 -13 l-66 0 0 80 0 81 63 -3 c34 -2 62 -7
62 -13z m229 -4 c28 -31 31 -82 6 -114 -19 -23 -28 -27 -76 -27 l-54 0 0 80 0
80 53 0 c40 0 58 -5 71 -19z m176 4 c0 -11 -11 -15 -40 -15 -53 0 -56 -27 -3
-32 52 -4 56 -28 4 -28 -34 0 -41 -3 -41 -19 0 -16 8 -20 42 -23 23 -2 43 -9
46 -15 3 -10 -14 -13 -62 -13 l-66 0 0 80 0 80 60 0 c47 0 60 -3 60 -15z m230
0 c0 -9 -9 -15 -25 -15 -24 0 -25 -2 -25 -65 0 -58 -2 -65 -20 -65 -18 0 -20
7 -20 65 0 63 -1 65 -25 65 -16 0 -25 6 -25 15 0 12 14 15 70 15 56 0 70 -3
70 -15z m148 3 c15 -15 16 -55 1 -64 -8 -4 -8 -9 0 -17 6 -6 11 -24 11 -39 0
-39 -37 -40 -42 0 -2 21 -8 27 -28 27 -20 0 -26 -6 -28 -27 -2 -20 -9 -28 -23
-28 -17 0 -19 8 -19 73 0 41 3 77 7 80 11 12 108 8 121 -5z m166 -59 c14 -38
26 -74 26 -80 0 -15 -37 -10 -44 6 -3 8 -17 15 -31 15 -14 0 -28 -7 -31 -15
-6 -16 -44 -21 -44 -7 0 7 26 89 45 140 2 6 15 12 29 12 20 0 27 -10 50 -71z
m127 24 l24 -48 3 48 c3 39 6 47 23 47 17 0 19 -7 19 -80 0 -77 -1 -80 -23
-80 -17 0 -30 11 -46 40 -12 22 -26 40 -31 40 -4 0 -6 -18 -3 -40 5 -36 3 -40
-16 -40 -20 0 -21 5 -21 80 0 77 1 80 23 80 18 0 29 -11 48 -47z m309 -33 c0
-73 -2 -80 -20 -80 -18 0 -20 7 -20 73 0 76 4 87 27 87 10 0 13 -20 13 -80z
m163 65 c-1 -5 -11 -11 -23 -13 -18 -3 -20 -11 -20 -68 0 -62 -1 -64 -25 -64
-24 0 -25 2 -25 65 0 58 -2 65 -19 65 -22 0 -34 13 -24 24 11 11 138 2 136 -9z
m-3223 -1710 c-19 -19 -42 -35 -52 -35 -22 0 -22 3 -3 40 13 25 22 30 52 30
l37 0 -34 -35z m3203 6 c22 -38 22 -41 -7 -41 -13 0 -27 7 -30 16 -6 16 -8 16
-24 0 -10 -9 -28 -16 -40 -16 l-21 0 20 35 c17 28 27 35 53 35 24 0 36 -7 49
-29z m-4878 -79 c6 -4 10 -14 10 -22 0 -11 -14 -16 -48 -20 l-49 -5 -1 -135
-2 -135 -32 -3 -33 -3 0 140 0 141 -50 0 c-42 0 -50 3 -50 18 0 10 3 22 7 25
9 9 236 9 248 -1z m223 -4 c8 -11 88 -231 107 -296 6 -22 4 -23 -31 -20 -33 3
-39 7 -46 36 l-9 32 -68 0 -68 0 -9 -32 c-8 -29 -14 -33 -47 -36 -20 -2 -37
-2 -37 0 0 7 89 256 104 292 14 33 19 36 54 36 22 0 44 -6 50 -12z m260 -130
l3 -138 84 0 c84 0 85 0 85 -25 l0 -25 -115 0 -115 0 0 166 0 165 28 -3 27 -3
3 -137z m496 114 c48 -28 68 -75 64 -154 -4 -72 -23 -104 -80 -134 -36 -19
-112 -18 -155 2 -116 56 -103 261 19 302 42 14 113 7 152 -16z m229 13 c9 -8
39 -56 69 -107 l53 -93 5 105 5 105 30 0 30 0 3 -162 2 -163 -37 0 c-37 1 -39
3 -100 103 l-63 102 0 -103 0 -102 -35 0 -35 0 0 158 c0 87 3 162 7 165 12 12
51 7 66 -8z m539 -145 c31 -85 57 -158 57 -162 1 -5 -15 -8 -35 -8 -31 0 -37
4 -50 35 l-15 36 -66 -3 c-66 -3 -67 -3 -77 -35 -8 -30 -12 -33 -48 -33 -22 0
-37 4 -33 9 3 5 26 69 51 143 26 73 50 143 55 156 8 20 15 23 56 20 l48 -3 57
-155z m353 146 c38 -16 55 -42 55 -84 0 -34 -31 -78 -62 -88 -18 -5 -19 -8 -6
-15 15 -8 88 -111 88 -123 0 -3 -17 -6 -39 -6 -34 0 -41 5 -66 43 -42 64 -66
87 -92 87 -22 0 -23 -4 -23 -65 l0 -65 -35 0 -35 0 0 158 c0 87 3 162 7 165
12 13 173 7 208 -7z m213 -153 l2 -163 -35 0 -35 0 0 158 c0 87 3 162 7 166 4
4 19 6 33 4 l25 -3 3 -162z m332 145 c59 -30 83 -74 83 -148 0 -103 -57 -160
-159 -160 -56 0 -102 24 -137 72 -28 37 -28 132 -1 179 22 39 93 79 139 79 17
0 51 -10 75 -22z m588 -5 c3 -21 0 -22 -85 -25 l-88 -3 -3 -32 -3 -32 83 -3
c77 -3 83 -5 86 -25 3 -21 -1 -22 -80 -25 l-83 -3 -3 -52 -3 -53 95 0 c96 0
96 0 96 -25 l0 -25 -125 0 -125 0 0 165 0 166 118 -3 c112 -3 117 -4 120 -25z
m160 -115 l3 -137 82 -3 c77 -3 82 -4 85 -26 3 -23 3 -23 -115 -20 l-118 3 -3
150 c-1 82 0 155 3 163 3 8 16 12 32 10 l28 -3 3 -137z m502 117 c0 -24 -2
-24 -87 -27 l-88 -3 -3 -32 -3 -32 83 -3 c77 -3 83 -5 86 -25 3 -21 -1 -22
-80 -25 l-83 -3 -3 -52 -3 -53 95 0 c96 0 96 0 96 -25 l0 -25 -125 0 -125 0 0
165 0 165 120 0 120 0 0 -25z m334 19 c9 -3 16 -14 16 -25 0 -15 -9 -19 -51
-21 l-51 -3 -1 -135 -2 -135 -32 -3 -33 -3 0 140 0 141 -50 0 c-42 0 -50 3
-50 18 0 10 3 22 7 25 8 9 226 9 247 1z m288 -5 c41 -11 68 -48 68 -92 0 -29
-33 -73 -61 -82 -20 -7 -20 -8 8 -38 32 -34 73 -91 73 -101 0 -3 -18 -6 -40
-6 -37 0 -42 4 -79 59 -39 56 -56 71 -87 71 -11 0 -14 -16 -14 -65 l0 -65 -35
0 -35 0 0 158 c0 87 3 162 7 165 10 11 154 8 195 -4z m401 -17 c63 -36 87
-147 49 -222 -34 -68 -127 -100 -204 -71 -38 14 -77 61 -89 105 -14 53 3 135
34 164 56 53 144 63 210 24z m254 -17 c16 -25 44 -73 63 -107 l35 -61 5 104 5
104 30 0 30 0 3 -162 2 -163 -37 0 c-37 1 -39 3 -98 99 l-60 99 -3 -100 -3
-99 -32 3 -32 3 -3 150 c-1 82 0 155 2 162 3 7 19 13 36 13 25 0 35 -8 57 -45z
m348 -120 l0 -160 -33 0 -33 0 -2 158 c-1 97 2 159 8 161 6 3 21 4 35 3 l25
-2 0 -160z m320 141 c14 -9 32 -28 42 -42 14 -22 14 -27 2 -35 -22 -14 -56
-11 -62 5 -3 8 -17 22 -32 32 -21 14 -30 14 -55 4 -41 -17 -50 -37 -50 -110 0
-51 4 -65 25 -85 38 -39 86 -32 111 17 12 23 19 28 37 22 36 -10 40 -20 23
-53 -45 -85 -198 -80 -250 9 -26 44 -26 136 0 181 40 69 145 97 209 55z m372
4 c58 -26 83 -69 83 -143 0 -67 -19 -113 -58 -142 -21 -16 -43 -20 -99 -20
-70 0 -74 1 -109 36 -81 82 -61 224 39 270 53 24 91 24 144 -1z m-835 -2284
c61 -27 116 -81 150 -146 21 -41 23 -57 23 -200 0 -149 -1 -157 -27 -206 -15
-28 -48 -70 -73 -92 -89 -79 137 -72 -2496 -72 l-2358 0 -54 24 c-67 29 -122
83 -153 150 -22 46 -24 65 -24 193 0 109 4 153 17 185 26 69 77 123 145 157
l61 31 2368 0 2368 0 53 -24z m5 -1094 c63 -33 106 -74 139 -134 27 -50 29
-60 32 -190 3 -108 0 -148 -13 -187 -21 -64 -92 -144 -159 -179 l-51 -27
-2370 0 -2370 0 -57 28 c-32 16 -75 48 -97 73 -59 67 -71 114 -71 275 0 169
16 217 99 291 93 84 -149 77 2506 75 l2370 -2 42 -23z m-4937 -992 l0 -110
-110 0 -110 0 0 103 c0 57 3 107 7 110 3 4 53 7 110 7 l103 0 0 -110z m143 73
c-9 -3 -13 -29 -13 -79 l0 -74 31 0 c19 0 37 7 45 18 12 15 13 14 14 -10 0
-28 -1 -28 -62 -28 l-63 0 3 84 c4 75 2 85 -15 89 -10 3 2 5 27 5 25 0 39 -2
33 -5z m547 -27 c0 -30 2 -33 25 -28 54 10 75 -55 31 -97 -17 -16 -33 -22 -57
-19 l-32 3 2 72 c1 42 -2 74 -9 78 -15 9 -2 25 21 25 15 0 19 -7 19 -34z
m2140 19 c0 -17 -16 -20 -25 -5 -3 6 -19 10 -36 10 -27 0 -29 -3 -29 -35 0
-31 3 -35 25 -35 14 0 25 5 25 10 0 6 5 10 10 10 6 0 10 -14 10 -32 0 -25 -3
-29 -12 -20 -7 7 -22 12 -35 12 -19 0 -23 -5 -23 -30 0 -27 3 -30 31 -30 19 0
37 7 45 18 12 15 13 14 14 -10 0 -28 0 -28 -72 -28 -56 0 -69 3 -60 12 17 17
16 155 0 161 -7 3 20 6 60 6 58 1 72 -2 72 -14z m1547 0 c8 -23 -7 -33 -18
-12 -12 21 -42 22 -59 2 -18 -21 -5 -45 25 -45 42 0 65 -17 65 -50 0 -37 -32
-60 -82 -60 -35 0 -38 2 -38 27 0 24 1 25 13 9 9 -12 23 -17 42 -14 24 2 30 8
30 28 0 20 -7 26 -39 35 -52 15 -65 35 -43 69 14 21 25 26 58 26 26 0 42 -5
46 -15z m404 -22 c1 -21 1 -55 -1 -76 -1 -21 4 -44 10 -52 11 -13 7 -15 -26
-15 -30 0 -35 3 -26 12 17 17 16 148 0 148 -9 0 -8 4 2 10 29 18 40 11 41 -27z
m371 13 c9 -21 7 -29 -16 -56 -14 -17 -26 -38 -26 -46 0 -8 -4 -14 -10 -14
-16 0 -12 26 11 65 20 34 21 38 5 53 -12 13 -18 14 -28 4 -17 -17 -29 -15 -22
3 4 9 19 15 40 15 27 0 37 -5 46 -24z m-4798 -52 c13 -35 7 -44 -34 -44 -22 0
-40 -4 -40 -9 0 -16 41 -40 58 -34 10 4 13 2 8 -5 -13 -21 -63 -14 -80 10 -21
29 -20 57 1 80 20 23 78 24 87 2z m89 -33 c-6 -50 3 -66 31 -55 23 9 22 80 -1
93 -12 6 1 9 45 9 69 0 82 -11 82 -65 0 -16 5 -34 12 -41 9 -9 6 -12 -15 -12
-25 0 -27 3 -27 43 0 50 -12 72 -34 64 -18 -7 -23 -87 -6 -87 6 0 10 -4 10
-10 0 -6 -32 -10 -77 -10 -60 0 -74 3 -65 12 16 16 16 88 0 88 -20 0 14 20 34
20 15 0 16 -7 11 -49z m457 34 c0 -18 -16 -20 -23 -2 -4 9 -8 8 -16 -3 -17
-23 -13 -71 7 -86 15 -12 13 -13 -20 -14 -21 0 -38 5 -38 10 0 6 5 10 10 10
13 0 13 67 0 75 -20 12 1 25 41 25 28 0 39 -4 39 -15z m128 -35 c2 -24 8 -50
13 -56 7 -9 -2 -12 -38 -12 -78 1 -100 38 -38 64 19 8 35 19 35 24 0 17 -31
24 -40 9 -5 -7 -12 -10 -15 -7 -15 15 9 29 43 26 36 -3 37 -4 40 -48z m146 35
c-7 -17 -24 -20 -24 -4 0 5 -4 7 -10 4 -14 -9 -13 -78 2 -93 9 -9 3 -12 -27
-12 -30 0 -36 3 -27 12 15 15 16 75 1 84 -18 11 11 24 53 24 29 0 36 -3 32
-15z m1780 0 c3 -9 0 -15 -9 -15 -8 0 -15 5 -15 10 0 13 -27 13 -35 0 -4 -6
10 -17 29 -25 38 -16 47 -43 22 -64 -23 -19 -70 -10 -74 14 -3 16 -1 18 9 8
15 -15 45 -17 54 -3 3 5 -10 16 -30 24 -33 14 -46 41 -28 59 13 13 71 7 77 -8z
m161 -67 l0 -83 1038 -3 c691 -1 1036 -5 1032 -12 -9 -14 -2492 -13 -2500 0
-4 6 66 10 194 10 l201 0 0 28 c0 26 -3 28 -28 24 -49 -7 -75 49 -41 91 16 22
29 27 62 27 l42 0 0 -82z m95 32 c0 -50 4 -55 34 -44 20 7 22 74 4 74 -9 0 -8
4 2 10 26 17 30 11 30 -40 0 -27 5 -50 10 -50 6 0 10 -4 10 -9 0 -5 -26 -9
-57 -8 l-58 2 -3 40 c-2 22 -8 45 -13 51 -7 8 -6 14 3 17 32 13 38 7 38 -43z
m230 31 c17 -33 11 -41 -31 -41 -33 0 -40 -3 -37 -17 2 -13 13 -18 36 -18 39
0 37 -19 -2 -23 -54 -7 -89 64 -50 102 22 23 71 20 84 -3z m140 4 c0 -8 -4
-15 -10 -15 -5 0 -10 5 -10 11 0 6 -10 9 -22 7 -17 -2 -24 -11 -26 -31 -4 -35
13 -57 45 -57 14 0 21 -4 18 -10 -3 -5 -19 -10 -35 -10 -51 0 -78 64 -43 102
20 23 83 25 83 3z m138 3 c7 -7 12 -20 12 -30 0 -14 -8 -18 -41 -18 -33 0 -40
-3 -37 -17 2 -13 13 -18 36 -18 39 0 37 -19 -2 -23 -55 -7 -87 58 -49 100 18
20 63 24 81 6z m92 -39 c0 -47 2 -50 23 -47 18 2 23 10 25 41 2 25 -1 37 -10
37 -9 0 -9 3 2 10 31 20 40 11 40 -38 0 -26 5 -53 11 -59 8 -8 -4 -11 -47 -11
-33 0 -62 6 -66 12 -4 6 -8 28 -8 49 0 23 -5 37 -12 37 -9 0 -8 4 2 10 31 20
40 11 40 -41z m314 35 c3 -9 6 -30 6 -48 0 -18 6 -38 13 -45 10 -10 6 -12 -18
-9 -26 3 -30 7 -27 30 2 22 -1 25 -18 21 -23 -6 -26 -23 -7 -42 10 -10 7 -12
-13 -9 -17 2 -26 10 -28 26 -3 18 4 26 32 37 20 9 36 20 36 25 0 17 -29 23
-45 10 -15 -12 -22 0 -8 13 13 14 71 7 77 -9z m400 0 c13 -35 7 -44 -34 -44
-22 0 -40 -4 -40 -9 0 -16 41 -40 58 -34 10 4 13 2 8 -5 -13 -21 -63 -14 -80
10 -32 46 -6 98 48 98 22 0 36 -6 40 -16z m164 -36 c2 -27 7 -48 13 -48 5 0 9
-4 9 -10 0 -5 -11 -10 -24 -10 -23 0 -25 4 -28 53 -3 44 -6 52 -23 52 -16 0
-21 -8 -23 -38 -2 -21 2 -45 9 -53 10 -12 5 -14 -27 -14 -30 0 -35 3 -26 12
16 16 16 88 0 88 -9 0 -8 4 2 10 8 6 38 9 65 8 l50 -3 3 -47z m170 2 c2 -24 8
-50 14 -57 8 -10 4 -13 -16 -13 -25 0 -26 3 -26 50 0 36 -5 52 -17 60 -15 9
-13 10 12 8 28 -3 30 -6 33 -48z m150 0 c2 -24 8 -50 14 -57 8 -10 6 -13 -5
-13 -33 0 -47 12 -41 35 5 20 3 23 -15 18 -24 -6 -27 -23 -8 -42 10 -10 7 -12
-13 -9 -17 2 -26 10 -28 26 -3 18 4 26 32 37 20 9 36 20 36 25 0 17 -29 23
-45 10 -8 -7 -15 -8 -15 -3 0 18 14 24 50 21 34 -3 35 -4 38 -48z m112 -61 c0
-5 -7 -9 -15 -9 -15 0 -20 12 -9 23 8 8 24 -1 24 -14z m-3525 -864 c0 -18 -8
-20 -97 -23 l-98 -3 0 -44 0 -45 89 0 c72 0 90 -3 95 -16 11 -29 -4 -34 -95
-34 l-90 0 3 -52 3 -53 97 -3 c77 -2 97 -6 102 -19 14 -35 -12 -43 -140 -43
-112 0 -124 2 -134 19 -15 29 -13 314 2 329 9 9 49 12 138 10 117 -3 125 -4
125 -23z m265 -92 c41 -62 77 -113 80 -113 3 0 4 39 2 88 -4 97 8 142 36 142
37 0 42 -19 42 -173 0 -83 -5 -157 -10 -168 -14 -26 -52 -24 -76 4 -11 12 -49
67 -85 121 l-64 100 -2 -100 c-4 -122 -8 -144 -31 -144 -38 0 -42 19 -42 180
0 168 4 183 50 178 19 -2 41 -28 100 -115z m556 102 c11 -27 -16 -45 -67 -45
l-48 0 -3 -141 c-3 -122 -5 -143 -20 -153 -13 -8 -23 -8 -35 0 -16 10 -18 31
-21 153 l-3 141 -50 0 c-51 0 -68 13 -55 45 8 22 294 22 302 0z m355 -14 c48
-48 30 -137 -32 -156 -19 -6 -19 -8 6 -37 45 -53 68 -107 54 -124 -22 -26 -52
-11 -91 46 -54 78 -77 100 -104 100 -22 0 -23 -4 -26 -71 -2 -55 -7 -74 -20
-83 -13 -8 -23 -8 -35 0 -16 10 -18 31 -21 170 -1 87 0 164 2 171 4 10 36 13
121 13 115 0 117 0 146 -29z m387 -126 c68 -161 74 -200 32 -200 -18 0 -30 10
-46 39 l-22 38 -68 0 -69 0 -20 -38 c-23 -44 -58 -57 -74 -26 -8 15 2 50 50
168 34 82 66 155 72 162 6 7 25 12 46 10 l36 -3 63 -150z m425 135 c55 -43 42
-130 -22 -162 -27 -13 -31 -19 -18 -24 22 -8 77 -95 77 -122 0 -56 -56 -38
-99 33 -37 61 -74 95 -102 95 -17 0 -19 -8 -19 -61 0 -68 -12 -99 -38 -99 -38
0 -42 19 -42 185 0 89 3 165 7 168 3 4 57 7 118 7 98 0 116 -3 138 -20z"/>
<path d="M12875 14620 c-52 -20 -160 -116 -175 -154 -21 -57 -21 -115 -1 -155
12 -22 21 -52 21 -66 0 -20 12 -33 57 -61 101 -65 195 -88 260 -63 41 15 121
97 150 154 38 73 42 166 11 220 -30 51 -78 82 -136 90 -65 8 -121 26 -119 38
4 17 -17 16 -68 -3z m59 -89 c3 -5 -17 -25 -44 -45 -28 -20 -53 -43 -56 -51
-10 -24 -24 -17 -24 11 0 38 18 64 53 79 37 17 64 19 71 6z m55 -301 c40 -1
43 -2 26 -12 -29 -17 -107 -13 -141 6 l-29 17 49 -5 c27 -4 70 -6 95 -6z"/>
<path d="M12821 14008 c-54 -27 -109 -80 -127 -124 -18 -43 -18 -165 -1 -207
8 -18 39 -55 70 -83 60 -55 129 -82 237 -91 55 -5 55 -4 112 46 62 56 90 113
102 207 5 42 3 55 -14 77 -11 14 -20 31 -20 38 0 24 -127 137 -167 148 -63 18
-143 13 -192 -11z m229 -57 c16 -11 34 -21 40 -21 6 0 27 -12 46 -26 28 -22
34 -33 34 -63 -1 -56 -35 -170 -60 -196 -53 -56 -135 -56 -248 0 -63 32 -69
38 -86 84 -21 59 -12 106 33 168 58 80 172 106 241 54z"/>
<path d="M13243 13915 c0 -38 2 -53 4 -32 2 20 2 52 0 70 -2 17 -4 1 -4 -38z"/>
<path d="M13242 13810 c0 -14 2 -19 5 -12 2 6 2 18 0 25 -3 6 -5 1 -5 -13z"/>
<path d="M13241 13688 c2 -48 7 -84 11 -82 9 6 1 154 -8 163 -3 3 -4 -34 -3
-81z"/>
<path d="M12727 13575 c24 -32 83 -74 83 -61 0 3 -13 12 -29 21 -16 8 -32 23
-35 32 -3 10 -15 24 -27 31 -17 11 -16 7 8 -23z"/>
<path d="M12858 13493 c6 -2 18 -2 25 0 6 3 1 5 -13 5 -14 0 -19 -2 -12 -5z"/>
<path d="M12928 13483 c6 -2 18 -2 25 0 6 3 1 5 -13 5 -14 0 -19 -2 -12 -5z"/>
<path d="M13260 13437 c0 -25 4 -49 10 -52 6 -4 7 11 3 42 -8 63 -13 67 -13
10z"/>
<path d="M12857 13433 c-3 -5 15 -8 39 -9 24 0 41 3 38 8 -6 10 -71 11 -77 1z"/>
<path d="M12790 13392 c-41 -20 -59 -61 -59 -139 -2 -171 88 -283 228 -283 73
0 158 28 194 65 67 67 96 190 63 268 -19 44 -64 83 -111 96 -71 19 -90 8 -32
-19 61 -29 101 -142 78 -227 -16 -58 -60 -83 -147 -83 -71 0 -122 20 -163 63
-22 24 -23 31 -18 114 3 48 10 101 16 116 20 53 11 58 -49 29z"/>
<path d="M13284 13155 c0 -71 1 -99 3 -62 2 37 2 96 0 130 -2 34 -3 4 -3 -68z"/>
<path d="M13213 12863 c15 -2 39 -2 55 0 15 2 2 4 -28 4 -30 0 -43 -2 -27 -4z"/>
<path d="M14670 13185 c0 -19 5 -25 23 -25 12 0 28 4 36 9 21 13 -4 41 -35 41
-19 0 -24 -5 -24 -25z"/>
<path d="M15452 13165 c-11 -24 -10 -25 18 -25 28 0 29 1 18 25 -6 14 -14 25
-18 25 -4 0 -12 -11 -18 -25z"/>
<path d="M16331 13196 c-17 -20 -10 -77 12 -90 25 -16 51 4 55 43 4 36 -12 61
-38 61 -10 0 -23 -6 -29 -14z"/>
<path d="M13860 12904 c-12 -31 6 -77 31 -82 38 -7 66 67 37 96 -22 22 -58 14
-68 -14z"/>
<path d="M14556 12914 c-13 -33 -6 -73 14 -84 30 -16 60 4 60 40 0 45 -10 60
-40 60 -16 0 -30 -7 -34 -16z"/>
<path d="M16590 12911 c-15 -30 -12 -56 10 -76 23 -21 46 -14 62 20 8 19 8 31
0 50 -14 31 -56 34 -72 6z"/>
<path d="M14380 12910 c0 -17 5 -21 28 -18 16 2 27 9 27 18 0 9 -11 16 -27 18
-23 3 -28 -1 -28 -18z"/>
<path d="M15120 12879 c0 -49 1 -50 28 -47 24 3 27 8 30 42 3 40 -8 56 -40 56
-15 0 -18 -9 -18 -51z"/>
<path d="M15674 12919 c-3 -6 -2 -15 4 -21 15 -15 46 -5 50 15 3 12 -3 17 -22
17 -14 0 -28 -5 -32 -11z"/>
<path d="M15862 12895 c-16 -35 -16 -35 18 -35 l31 0 -16 30 c-9 17 -17 30
-19 30 -1 0 -8 -11 -14 -25z"/>
<path d="M11776 11042 c-22 -81 -22 -82 28 -82 l43 0 -20 70 c-12 39 -24 70
-28 70 -3 0 -14 -26 -23 -58z"/>
<path d="M12460 11092 c-27 -27 -30 -37 -30 -89 1 -61 10 -82 47 -101 35 -19
63 -14 95 18 28 29 30 35 26 91 -5 68 -24 95 -75 105 -27 5 -37 1 -63 -24z"/>
<path d="M13241 11038 c-12 -34 -21 -66 -21 -70 0 -4 20 -8 45 -8 25 0 45 4
45 8 0 11 -41 132 -45 132 -2 0 -13 -28 -24 -62z"/>
<path d="M13587 11113 c-4 -3 -7 -26 -7 -50 l0 -43 48 0 c72 0 106 45 64 83
-18 17 -92 24 -105 10z"/>
<path d="M14158 11104 c-37 -20 -48 -43 -48 -104 0 -44 5 -56 29 -81 38 -38
83 -39 116 -3 21 22 25 37 25 86 0 52 -3 63 -29 89 -33 32 -53 35 -93 13z"/>
<path d="M16010 11070 l0 -50 48 0 c54 0 72 12 72 50 0 38 -18 50 -72 50 l-48
0 0 -50z"/>
<path d="M16424 11110 c-37 -15 -54 -50 -54 -110 1 -58 11 -79 47 -98 74 -40
138 38 119 143 -5 26 -16 41 -39 55 -35 22 -42 23 -73 10z"/>
<path d="M17734 11110 c-36 -14 -54 -50 -54 -108 0 -46 4 -58 29 -83 29 -28
61 -36 96 -23 26 10 45 59 45 114 0 44 -5 56 -29 81 -30 30 -50 34 -87 19z"/>
<path d="M12767 6783 c-4 -3 -7 -24 -7 -45 0 -31 4 -38 20 -38 28 0 45 36 31
66 -10 23 -31 31 -44 17z"/>
<path d="M12356 6775 c-4 -11 2 -15 26 -15 26 0 29 2 18 15 -7 8 -18 15 -25
15 -7 0 -15 -7 -19 -15z"/>
<path d="M13048 6733 c-21 -5 -24 -29 -4 -36 8 -3 18 5 25 19 11 24 10 25 -21
17z"/>
<path d="M15107 6784 c-12 -13 -8 -71 7 -83 20 -17 38 10 34 51 -3 31 -25 48
-41 32z"/>
<path d="M15447 6784 c-14 -14 -6 -24 19 -24 16 0 24 5 22 13 -5 14 -31 21
-41 11z"/>
<path d="M15727 6784 c-14 -14 -6 -24 19 -24 16 0 24 5 22 13 -5 14 -31 21
-41 11z"/>
<path d="M16526 6775 c-4 -11 2 -15 26 -15 26 0 29 2 18 15 -7 8 -18 15 -25
15 -7 0 -15 -7 -19 -15z"/>
<path d="M14650 5750 l0 -50 51 0 c66 0 89 13 89 50 0 37 -23 50 -89 50 l-51
0 0 -50z"/>
<path d="M15115 5748 c-2 -7 -13 -37 -24 -65 l-19 -53 50 0 c36 0 49 4 46 13
-3 6 -13 36 -22 65 -18 54 -24 61 -31 40z"/>
<path d="M15470 5749 l0 -51 61 4 c61 4 79 15 79 50 0 32 -29 48 -86 48 l-54
0 0 -51z"/>
<path d="M6350 10914 c-166 -36 -330 -171 -355 -294 -4 -19 -20 -50 -36 -67
-15 -18 -33 -52 -40 -75 -14 -54 -7 -249 12 -301 14 -38 16 -39 65 -41 59 -4
103 -31 130 -82 10 -19 21 -34 24 -33 10 1 140 154 169 198 44 66 65 141 52
187 -6 21 -9 39 -8 40 2 2 238 -47 297 -62 24 -6 24 -7 -10 -19 -33 -11 -34
-12 -14 -23 49 -26 176 -53 277 -59 59 -3 107 -9 107 -12 0 -4 -5 -12 -12 -19
-19 -19 -2 -25 33 -13 17 6 35 9 39 6 10 -6 33 -135 26 -142 -3 -3 -17 4 -32
16 -56 44 -84 14 -29 -32 21 -17 44 -45 51 -64 19 -45 49 -46 39 0 -8 39 -8
58 1 171 l7 90 57 53 c141 130 130 262 -30 371 -258 174 -586 257 -820 206z"/>
<path d="M6553 10173 c-18 -9 -35 -23 -38 -31 -10 -25 16 -31 49 -11 19 12 50
19 79 19 40 0 47 3 47 20 0 18 -6 20 -52 19 -29 0 -67 -7 -85 -16z"/>
<path d="M6618 10023 c-33 -37 -33 -85 -1 -97 39 -15 73 70 41 102 -16 16 -22
15 -40 -5z"/>
<path d="M6956 9944 c-20 -20 -21 -78 -1 -94 32 -26 77 48 55 90 -13 24 -33
26 -54 4z"/>
<path d="M6450 9605 c0 -30 28 -81 58 -107 29 -25 119 -66 125 -57 47 71 67
113 55 121 -8 5 -19 1 -30 -12 -17 -20 -17 -20 -69 -1 -28 11 -69 32 -90 46
-45 29 -49 30 -49 10z"/>
<path d="M7561 9368 c-21 -68 -91 -346 -91 -362 0 -11 6 -16 17 -14 13 2 23
27 39 93 13 50 36 141 52 203 27 103 28 112 11 112 -11 0 -21 -12 -28 -32z"/>
<path d="M5173 9223 c-8 -3 6 -20 35 -42 69 -55 145 -142 305 -350 78 -101
180 -231 225 -290 l84 -106 -4 119 -3 118 -70 61 c-188 164 -356 343 -428 455
-27 41 -29 42 -80 41 -28 0 -58 -3 -64 -6z"/>
<path d="M6577 8956 c-36 -111 -152 -264 -262 -342 -27 -19 -29 -23 -17 -45
20 -39 81 -225 88 -269 4 -22 9 -40 13 -40 36 0 263 112 416 205 61 37 123 75
138 84 23 13 40 43 84 150 30 73 53 134 51 135 -21 17 -360 138 -459 164 l-36
10 -16 -52z"/>
<path d="M4875 8682 c-18 -43 -119 -401 -150 -532 -13 -52 -30 -122 -38 -155
-14 -55 -56 -253 -89 -415 l-13 -65 -52 -3 -51 -3 -7 43 c-11 67 -39 113 -82
134 -55 27 -209 32 -269 9 -60 -23 -132 -81 -188 -153 l-47 -59 -99 -6 c-113
-6 -176 -29 -247 -91 -189 -165 -514 -931 -529 -1246 l-4 -95 -65 -69 c-219
-232 -295 -682 -228 -1353 l6 -63 -282 0 c-268 0 -282 -1 -301 -20 -19 -19
-20 -33 -20 -199 0 -175 1 -180 22 -195 18 -13 56 -16 210 -16 l188 0 0 -300
0 -300 -430 0 -431 0 3 -133 3 -132 483 -3 482 -2 0 -1370 0 -1371 128 3 127
3 5 1800 5 1800 940 2 c517 2 1021 -1 1120 -5 l180 -7 5 -1795 5 -1795 178 -3
177 -2 0 1800 0 1800 895 0 c492 0 895 4 895 8 0 26 -137 342 -174 400 l-26
42 -328 0 c-180 -1 -388 -5 -462 -10 -206 -15 -766 -24 -942 -15 -148 7 -188
15 -135 29 41 10 96 66 126 129 41 86 55 188 48 355 -9 198 -40 370 -142 787
-24 99 -64 263 -89 365 -24 102 -56 215 -70 253 -14 37 -26 72 -26 77 0 6 242
10 675 10 l675 0 6 28 c17 82 26 127 44 222 29 155 68 347 85 415 8 33 37 152
65 265 27 113 67 266 89 340 22 74 38 136 36 138 -1 1 -40 -16 -86 -39 -46
-23 -115 -55 -154 -70 l-70 -27 0 -151 0 -151 -33 0 c-41 0 -52 23 -29 62 13
22 17 54 17 127 l0 98 -82 -19 c-171 -38 -325 -20 -507 60 l-86 38 -22 -46
c-11 -25 -24 -55 -28 -67 -8 -28 -26 -29 -56 -3 l-24 20 30 26 c30 27 65 73
65 86 0 3 -26 21 -57 39 -243 139 -634 517 -736 711 -20 37 -27 44 -32 30z
m-524 -1077 c33 -17 49 -43 49 -78 l0 -24 -196 -7 c-108 -4 -198 -5 -202 -2
-8 8 46 63 88 89 75 47 193 57 261 22z m691 -1430 c136 -322 220 -736 221
-1080 1 -336 -51 -455 -195 -455 -64 0 -158 26 -158 43 0 7 11 86 25 177 44
292 58 564 52 1029 -5 459 -9 440 55 286z m-130 -1607 c-9 -9 -15 -9 -24 0 -9
9 -7 12 12 12 19 0 21 -3 12 -12z"/>
<path d="M5889 8683 l-37 -4 3 -142 2 -142 64 -66 c94 -96 144 -122 233 -122
56 0 190 24 202 36 8 7 -57 225 -85 287 -24 54 -70 100 -131 130 -45 23 -165
34 -251 23z"/>
<path d="M8130 4553 c0 -10 22 -110 48 -223 l48 -205 202 -3 202 -2 -7 32
c-17 90 -82 341 -90 349 -13 13 -311 69 -364 69 -31 0 -39 -4 -39 -17z"/>
<path d="M8642 3119 l3 -924 48 -210 c77 -342 107 -482 107 -504 0 -13 -10
-26 -23 -32 l-24 -11 53 -211 c30 -117 54 -214 54 -217 0 -3 -24 -11 -52 -18
-180 -39 -313 -73 -321 -81 -11 -11 42 -335 58 -358 8 -10 28 -17 51 -18 22
-1 46 -5 54 -8 9 -4 92 -6 185 -5 l170 3 3 57 c3 63 -2 58 92 78 30 6 76 18
102 26 45 15 49 14 76 -6 29 -21 30 -21 152 -5 68 8 194 20 279 25 198 12 254
18 371 37 136 22 170 44 170 110 0 48 -25 73 -73 73 -23 0 -79 9 -125 20 -86
21 -242 78 -242 89 0 4 14 12 31 18 25 10 30 16 27 40 -2 22 -9 29 -30 31 -15
2 -37 -2 -48 -8 -28 -15 -33 -9 -20 25 13 35 4 65 -19 65 -25 0 -43 -24 -50
-68 -8 -45 -12 -46 -255 -61 -122 -8 -182 -15 -188 -24 -4 -6 -8 -36 -8 -64 0
-51 -1 -53 -27 -53 -45 0 -164 28 -188 44 -31 20 -38 64 -13 77 22 12 48 5 48
-12 0 -7 -8 -21 -17 -32 -13 -15 -14 -19 -4 -15 46 14 35 73 -13 73 -22 -1
-26 3 -26 30 0 16 -1 302 -3 635 l-3 605 -57 280 c-215 1046 -293 1414 -301
1423 -4 3 -5 -410 -4 -919z m1122 -1968 c-12 -49 -40 -82 -56 -66 -9 9 12 89
24 96 22 14 38 -2 32 -30z m94 -63 c4 -22 -52 -52 -84 -44 -34 9 -30 31 9 50
39 19 71 17 75 -6z"/>
<path d="M1975 3016 c-17 -7 -43 -28 -58 -45 l-27 -33 0 -199 0 -199 280 0
280 0 0 194 c0 184 -1 195 -23 227 -40 61 -71 69 -257 69 -114 -1 -174 -5
-195 -14z"/>
</g>
</svg>
